<mxfile host="app.diagrams.net" modified="2023-07-25T04:10:46.873Z" agent="Mozilla/5.0 (Macintosh; Intel Mac OS X 10_15_7) AppleWebKit/537.36 (KHTML, like Gecko) Chrome/115.0.0.0 Safari/537.36 Edg/115.0.1901.183" etag="luyz-Cm_B4CY2Xndk6GA" version="21.6.3" type="github">
  <diagram name="Page-1" id="BzcRRVkOfnm3Q0xJU0LJ">
    <mxGraphModel dx="2074" dy="1156" grid="1" gridSize="10" guides="1" tooltips="1" connect="1" arrows="1" fold="1" page="1" pageScale="1" pageWidth="827" pageHeight="1169" math="0" shadow="0">
      <root>
        <mxCell id="0" />
        <mxCell id="1" parent="0" />
        <mxCell id="r_K-F1WVuDGWULZGkaAo-1" style="edgeStyle=orthogonalEdgeStyle;rounded=0;orthogonalLoop=1;jettySize=auto;html=1;startArrow=open;startFill=0;endArrow=open;endFill=0;strokeWidth=2;strokeColor=#808080;movable=1;resizable=1;rotatable=1;deletable=1;editable=1;locked=0;connectable=1;" edge="1" parent="1" source="r_K-F1WVuDGWULZGkaAo-3">
          <mxGeometry relative="1" as="geometry">
            <Array as="points">
              <mxPoint x="311" y="377" />
            </Array>
            <mxPoint x="369.5" y="376.5" as="targetPoint" />
          </mxGeometry>
        </mxCell>
        <mxCell id="r_K-F1WVuDGWULZGkaAo-2" style="edgeStyle=orthogonalEdgeStyle;rounded=0;orthogonalLoop=1;jettySize=auto;html=1;startArrow=open;startFill=0;endArrow=open;endFill=0;strokeWidth=2;strokeColor=#808080;movable=1;resizable=1;rotatable=1;deletable=1;editable=1;locked=0;connectable=1;" edge="1" parent="1">
          <mxGeometry relative="1" as="geometry">
            <mxPoint x="480" y="258" as="sourcePoint" />
            <mxPoint x="400" y="340" as="targetPoint" />
            <Array as="points">
              <mxPoint x="400" y="258" />
            </Array>
          </mxGeometry>
        </mxCell>
        <mxCell id="r_K-F1WVuDGWULZGkaAo-3" value="User" style="outlineConnect=0;gradientColor=none;fontColor=#545B64;strokeColor=none;fillColor=#879196;dashed=0;verticalLabelPosition=bottom;verticalAlign=top;align=center;html=1;fontSize=12;fontStyle=0;aspect=fixed;shape=mxgraph.aws4.illustration_desktop;pointerEvents=1;labelBackgroundColor=#ffffff;movable=1;resizable=1;rotatable=1;deletable=1;editable=1;locked=0;connectable=1;" vertex="1" parent="1">
          <mxGeometry x="70" y="340" width="100" height="91" as="geometry" />
        </mxCell>
        <mxCell id="r_K-F1WVuDGWULZGkaAo-4" value="" style="shape=image;imageAspect=0;aspect=fixed;verticalLabelPosition=bottom;verticalAlign=top;image=data:image/svg+xml,PHN2ZyB4bWxucz0iaHR0cDovL3d3dy53My5vcmcvMjAwMC9zdmciIHZpZXdCb3g9IjAgMCA2NCA2NCIgZmlsbD0ibm9uZSIgaGVpZ2h0PSI2NCIgd2lkdGg9IjY0Ij4mI3hhOyAgPHBhdGggZD0ibTI0Ljg0MSA0OS4xNy0xMi44Ni0xNy4yIDEyLjc5LTE2LjcxLTIuNDctMy4zNy0xNC40MSAxOC44NS0uMDIgMi40MSAxNC40OCAxOS4zOSAyLjQ5LTMuMzdaIiBmaWxsPSIjRjYzIi8+JiN4YTsgIDxwYXRoIGQ9Ik0yOS4zMzEgNy45NWgtNC45NWwxNy44NSAyNC40LTE3LjQzIDIzLjZoNC45OGwxNy40Mi0yMy41OS0xNy44Ny0yNC40MVoiIGZpbGw9IiNGNjMiLz4mI3hhOyAgPHBhdGggZD0iTTM4LjkwMSA3Ljk1aC01LjAxbDE4LjEzIDI0LjExLTE4LjEzIDIzLjg5aDUuMDJsMTcuMjEtMjIuNjh2LTIuNDFMMzguOTAxIDcuOTVaIiBmaWxsPSIjRjYzIi8+JiN4YTs8L3N2Zz4=;movable=1;resizable=1;rotatable=1;deletable=1;editable=1;locked=0;connectable=1;" vertex="1" parent="1">
          <mxGeometry x="370" y="340" width="64" height="64" as="geometry" />
        </mxCell>
        <mxCell id="r_K-F1WVuDGWULZGkaAo-5" value="Producer Worker" style="text;html=1;align=center;verticalAlign=middle;resizable=1;points=[];autosize=1;strokeColor=none;fillColor=none;movable=1;rotatable=1;deletable=1;editable=1;locked=0;connectable=1;" vertex="1" parent="1">
          <mxGeometry x="345" y="398" width="110" height="30" as="geometry" />
        </mxCell>
        <mxCell id="r_K-F1WVuDGWULZGkaAo-6" value="" style="shape=image;imageAspect=0;aspect=fixed;verticalLabelPosition=bottom;verticalAlign=top;image=data:image/svg+xml,PHN2ZyB4bWxucz0iaHR0cDovL3d3dy53My5vcmcvMjAwMC9zdmciIHZpZXdCb3g9IjAgMCA2NCA2NCIgZmlsbD0ibm9uZSIgaGVpZ2h0PSI2NCIgd2lkdGg9IjY0Ij4mI3hhOyAgPHBhdGggZD0ibTI0Ljg0MSA0OS4xNy0xMi44Ni0xNy4yIDEyLjc5LTE2LjcxLTIuNDctMy4zNy0xNC40MSAxOC44NS0uMDIgMi40MSAxNC40OCAxOS4zOSAyLjQ5LTMuMzdaIiBmaWxsPSIjRjYzIi8+JiN4YTsgIDxwYXRoIGQ9Ik0yOS4zMzEgNy45NWgtNC45NWwxNy44NSAyNC40LTE3LjQzIDIzLjZoNC45OGwxNy40Mi0yMy41OS0xNy44Ny0yNC40MVoiIGZpbGw9IiNGNjMiLz4mI3hhOyAgPHBhdGggZD0iTTM4LjkwMSA3Ljk1aC01LjAxbDE4LjEzIDI0LjExLTE4LjEzIDIzLjg5aDUuMDJsMTcuMjEtMjIuNjh2LTIuNDFMMzguOTAxIDcuOTVaIiBmaWxsPSIjRjYzIi8+JiN4YTs8L3N2Zz4=;movable=1;resizable=1;rotatable=1;deletable=1;editable=1;locked=0;connectable=1;" vertex="1" parent="1">
          <mxGeometry x="370" y="614" width="64" height="64" as="geometry" />
        </mxCell>
        <mxCell id="r_K-F1WVuDGWULZGkaAo-8" value="" style="shape=image;imageAspect=0;aspect=fixed;verticalLabelPosition=bottom;verticalAlign=top;image=data:image/svg+xml,PHN2ZyB4bWxucz0iaHR0cDovL3d3dy53My5vcmcvMjAwMC9zdmciIHZpZXdCb3g9IjAgMCA2NCA2NCIgZmlsbD0ibm9uZSIgaGVpZ2h0PSI2NCIgd2lkdGg9IjY0Ij4mI3hhOyAgPHBhdGggZD0ibTI0Ljg0MSA0OS4xNy0xMi44Ni0xNy4yIDEyLjc5LTE2LjcxLTIuNDctMy4zNy0xNC40MSAxOC44NS0uMDIgMi40MSAxNC40OCAxOS4zOSAyLjQ5LTMuMzdaIiBmaWxsPSIjRjYzIi8+JiN4YTsgIDxwYXRoIGQ9Ik0yOS4zMzEgNy45NWgtNC45NWwxNy44NSAyNC40LTE3LjQzIDIzLjZoNC45OGwxNy40Mi0yMy41OS0xNy44Ny0yNC40MVoiIGZpbGw9IiNGNjMiLz4mI3hhOyAgPHBhdGggZD0iTTM4LjkwMSA3Ljk1aC01LjAxbDE4LjEzIDI0LjExLTE4LjEzIDIzLjg5aDUuMDJsMTcuMjEtMjIuNjh2LTIuNDFMMzguOTAxIDcuOTVaIiBmaWxsPSIjRjYzIi8+JiN4YTs8L3N2Zz4=;movable=1;resizable=1;rotatable=1;deletable=1;editable=1;locked=0;connectable=1;" vertex="1" parent="1">
          <mxGeometry x="640" y="334" width="64" height="64" as="geometry" />
        </mxCell>
        <mxCell id="r_K-F1WVuDGWULZGkaAo-11" value="Anycast IP&amp;nbsp;&lt;br&gt;nearest&amp;nbsp; Cloudflare DC" style="text;html=1;align=center;verticalAlign=middle;resizable=1;points=[];autosize=1;strokeColor=none;fillColor=none;movable=1;rotatable=1;deletable=1;editable=1;locked=0;connectable=1;" vertex="1" parent="1">
          <mxGeometry x="170" y="374" width="150" height="40" as="geometry" />
        </mxCell>
        <mxCell id="r_K-F1WVuDGWULZGkaAo-12" value="" style="sketch=0;points=[[0,0,0],[0.25,0,0],[0.5,0,0],[0.75,0,0],[1,0,0],[0,1,0],[0.25,1,0],[0.5,1,0],[0.75,1,0],[1,1,0],[0,0.25,0],[0,0.5,0],[0,0.75,0],[1,0.25,0],[1,0.5,0],[1,0.75,0]];outlineConnect=0;fontColor=#232F3E;gradientColor=#60A337;gradientDirection=north;fillColor=#FF9933;strokeColor=#FF8000;dashed=0;verticalLabelPosition=bottom;verticalAlign=top;align=center;html=1;fontSize=12;fontStyle=0;aspect=fixed;shape=mxgraph.aws4.resourceIcon;resIcon=mxgraph.aws4.s3;movable=1;resizable=1;rotatable=1;deletable=1;editable=1;locked=0;connectable=1;" vertex="1" parent="1">
          <mxGeometry x="640" y="556" width="58" height="58" as="geometry" />
        </mxCell>
        <mxCell id="r_K-F1WVuDGWULZGkaAo-14" value="R2 Buckset" style="text;html=1;align=center;verticalAlign=middle;resizable=1;points=[];autosize=1;strokeColor=none;fillColor=none;movable=1;rotatable=1;deletable=1;editable=1;locked=0;connectable=1;" vertex="1" parent="1">
          <mxGeometry x="629" y="614" width="80" height="30" as="geometry" />
        </mxCell>
        <mxCell id="r_K-F1WVuDGWULZGkaAo-25" value="Queue" style="sketch=0;outlineConnect=0;fontColor=#232F3E;gradientColor=none;strokeColor=#232F3E;fillColor=#ffffff;dashed=0;verticalLabelPosition=bottom;verticalAlign=top;align=center;html=1;fontSize=12;fontStyle=0;aspect=fixed;shape=mxgraph.aws4.resourceIcon;resIcon=mxgraph.aws4.queue;" vertex="1" parent="1">
          <mxGeometry x="480" y="218" width="60" height="60" as="geometry" />
        </mxCell>
        <mxCell id="r_K-F1WVuDGWULZGkaAo-28" style="edgeStyle=orthogonalEdgeStyle;rounded=0;orthogonalLoop=1;jettySize=auto;html=1;startArrow=open;startFill=0;endArrow=open;endFill=0;strokeWidth=2;strokeColor=#808080;movable=1;resizable=1;rotatable=1;deletable=1;editable=1;locked=0;connectable=1;" edge="1" parent="1" source="r_K-F1WVuDGWULZGkaAo-25">
          <mxGeometry relative="1" as="geometry">
            <mxPoint x="752" y="252" as="sourcePoint" />
            <mxPoint x="672" y="334" as="targetPoint" />
            <Array as="points">
              <mxPoint x="672" y="260" />
            </Array>
          </mxGeometry>
        </mxCell>
        <mxCell id="r_K-F1WVuDGWULZGkaAo-29" style="edgeStyle=orthogonalEdgeStyle;rounded=0;orthogonalLoop=1;jettySize=auto;html=1;startArrow=open;startFill=0;endArrow=open;endFill=0;strokeWidth=2;strokeColor=#808080;movable=1;resizable=1;rotatable=1;deletable=1;editable=1;locked=0;connectable=1;" edge="1" parent="1">
          <mxGeometry relative="1" as="geometry">
            <mxPoint x="672" y="420" as="sourcePoint" />
            <mxPoint x="672" y="544" as="targetPoint" />
            <Array as="points">
              <mxPoint x="672" y="480" />
              <mxPoint x="672" y="480" />
            </Array>
          </mxGeometry>
        </mxCell>
        <mxCell id="r_K-F1WVuDGWULZGkaAo-30" value="Consumer Worker" style="text;html=1;align=center;verticalAlign=middle;resizable=1;points=[];autosize=1;strokeColor=none;fillColor=none;movable=1;rotatable=1;deletable=1;editable=1;locked=0;connectable=1;" vertex="1" parent="1">
          <mxGeometry x="609" y="398" width="120" height="30" as="geometry" />
        </mxCell>
        <mxCell id="r_K-F1WVuDGWULZGkaAo-31" value="" style="shape=image;imageAspect=0;aspect=fixed;verticalLabelPosition=bottom;verticalAlign=top;image=data:image/svg+xml,PHN2ZyB4bWxucz0iaHR0cDovL3d3dy53My5vcmcvMjAwMC9zdmciIHZpZXdCb3g9IjAgMCA2NCA2NCIgZmlsbD0ibm9uZSIgaGVpZ2h0PSI2NCIgd2lkdGg9IjY0Ij4mI3hhOyAgPHBhdGggZD0ibTI0Ljg0MSA0OS4xNy0xMi44Ni0xNy4yIDEyLjc5LTE2LjcxLTIuNDctMy4zNy0xNC40MSAxOC44NS0uMDIgMi40MSAxNC40OCAxOS4zOSAyLjQ5LTMuMzdaIiBmaWxsPSIjRjYzIi8+JiN4YTsgIDxwYXRoIGQ9Ik0yOS4zMzEgNy45NWgtNC45NWwxNy44NSAyNC40LTE3LjQzIDIzLjZoNC45OGwxNy40Mi0yMy41OS0xNy44Ny0yNC40MVoiIGZpbGw9IiNGNjMiLz4mI3hhOyAgPHBhdGggZD0iTTM4LjkwMSA3Ljk1aC01LjAxbDE4LjEzIDI0LjExLTE4LjEzIDIzLjg5aDUuMDJsMTcuMjEtMjIuNjh2LTIuNDFMMzguOTAxIDcuOTVaIiBmaWxsPSIjRjYzIi8+JiN4YTs8L3N2Zz4=;movable=1;resizable=1;rotatable=1;deletable=1;editable=1;locked=0;connectable=1;" vertex="1" parent="1">
          <mxGeometry x="370" y="470" width="64" height="64" as="geometry" />
        </mxCell>
        <mxCell id="r_K-F1WVuDGWULZGkaAo-32" style="edgeStyle=orthogonalEdgeStyle;rounded=0;orthogonalLoop=1;jettySize=auto;html=1;startArrow=open;startFill=0;endArrow=open;endFill=0;strokeWidth=2;strokeColor=#808080;movable=1;resizable=1;rotatable=1;deletable=1;editable=1;locked=0;connectable=1;" edge="1" parent="1">
          <mxGeometry relative="1" as="geometry">
            <mxPoint x="402" y="540" as="sourcePoint" />
            <mxPoint x="402" y="600" as="targetPoint" />
            <Array as="points">
              <mxPoint x="401.5" y="580" />
              <mxPoint x="401.5" y="580" />
            </Array>
          </mxGeometry>
        </mxCell>
      </root>
    </mxGraphModel>
  </diagram>
</mxfile>
